<svg xmlns="http://www.w3.org/2000/svg" width="202.42" height="202.43" viewBox="0 0 202.42 202.43"><g id="Layer_2" data-name="Layer 2"><g id="Logo"><g id="Circle"><circle cx="101.21" cy="101.21" r="97.21" fill="#1b1446"/><path d="M101.21,8A93.22,93.22,0,1,1,8,101.21,93.31,93.31,0,0,1,101.21,8m0-8A101.22,101.22,0,1,0,202.42,101.21,101.21,101.21,0,0,0,101.21,0Z" fill="#fff"/></g><path id="Letter" d="M116.94,49.82H69V80.9H87.1V68h29.84a24.08,24.08,0,0,1,5.36,47.38V133.6a42.05,42.05,0,0,0-5.36-83.78Z" fill="#fff"/><polygon id="Plus" points="112.8 116.09 87.1 116.09 87.1 90.4 68.98 90.4 68.98 116.09 43.29 116.09 43.29 134.22 68.98 134.22 68.98 159.91 87.1 159.91 87.1 134.22 112.8 134.22 112.8 116.09" fill="#ed1e79"/></g></g></svg>