<svg xmlns="http://www.w3.org/2000/svg" width="202.42" height="202.43" viewBox="0 0 202.42 202.43"><g id="Layer_2" data-name="Layer 2"><g id="Logo"><g id="Circle"><circle cx="101.21" cy="101.21" r="97.21" fill="#1b1446"/><path d="M101.21,8A93.22,93.22,0,1,1,8,101.21,93.31,93.31,0,0,1,101.21,8m0-8A101.22,101.22,0,1,0,202.42,101.21,101.21,101.21,0,0,0,101.21,0Z" fill="#fff"/></g><path id="Letter" d="M116.94,49.82H69V80.9H87.1V68h29.84a24.08,24.08,0,0,1,5.36,47.38V133.6a42.05,42.05,0,0,0-5.36-83.78Z" fill="#fff"/><polygon id="Plus" points="112.8 116.09 87.1 116.09 87.1 90.4 68.98 90.4 68.98 116.09 43.29 116.09 43.29 134.22 68.98 134.22 68.98 159.91 87.1 159.91 87.1 134.22 112.8 134.22 112.8 116.09" fill="#ed1e79"/><path d="M51.89,120.94a1.92,1.92,0,0,1,1.07.33,2.46,2.46,0,0,1,.8.89,2.56,2.56,0,0,1,.31,1.26,2.51,2.51,0,0,1-.31,1.24,2.46,2.46,0,0,1-.8.89,1.86,1.86,0,0,1-1.07.34h-2l.11-.2V128a.67.67,0,0,1-.17.48.59.59,0,0,1-.46.19.55.55,0,0,1-.45-.19.68.68,0,0,1-.18-.48v-6.34a.69.69,0,0,1,.19-.48.66.66,0,0,1,.48-.2Zm0,3.7a.6.6,0,0,0,.4-.18,1.47,1.47,0,0,0,.33-.46,1.29,1.29,0,0,0,.13-.58,1.35,1.35,0,0,0-.13-.6,1.37,1.37,0,0,0-.33-.44.59.59,0,0,0-.4-.17h-2L50,122v2.8l-.12-.17Z" fill="#fff"/><path d="M62.41,124.79a4.13,4.13,0,0,1-.28,1.54,4.07,4.07,0,0,1-.77,1.26,3.76,3.76,0,0,1-4.18.85,3.71,3.71,0,0,1-1.18-.85,4.19,4.19,0,0,1,0-5.6,3.71,3.71,0,0,1,1.18-.85,3.67,3.67,0,0,1,4.18.85,4.07,4.07,0,0,1,.77,1.26A4.13,4.13,0,0,1,62.41,124.79Zm-1.43,0a2.89,2.89,0,0,0-.3-1.33,2.28,2.28,0,0,0-.81-.95,2.16,2.16,0,0,0-2.39,0,2.25,2.25,0,0,0-.81.94,3.22,3.22,0,0,0,0,2.67,2.28,2.28,0,0,0,.81.95,2.16,2.16,0,0,0,2.39,0,2.28,2.28,0,0,0,.81-.95A2.92,2.92,0,0,0,61,124.79Z" fill="#fff"/><path d="M66.14,128.74a4.56,4.56,0,0,1-1.38-.19,3.44,3.44,0,0,1-1.18-.67,1.18,1.18,0,0,1-.22-.28.67.67,0,0,1-.07-.31.64.64,0,0,1,.18-.44.62.62,0,0,1,.83-.06,3.11,3.11,0,0,0,.83.51,2.5,2.5,0,0,0,1,.18,2,2,0,0,0,.75-.13,1.32,1.32,0,0,0,.55-.34.67.67,0,0,0,.21-.49.81.81,0,0,0-.2-.55,1.46,1.46,0,0,0-.6-.4,5.19,5.19,0,0,0-1-.24,4.77,4.77,0,0,1-1-.27,2.51,2.51,0,0,1-.75-.46,1.88,1.88,0,0,1-.46-.66,2.3,2.3,0,0,1-.15-.85,2,2,0,0,1,.37-1.22,2.19,2.19,0,0,1,1-.77,3.46,3.46,0,0,1,1.38-.26,4.08,4.08,0,0,1,1.33.21,3,3,0,0,1,1,.54.76.76,0,0,1,.32.59.59.59,0,0,1-.19.43.55.55,0,0,1-.44.2.45.45,0,0,1-.29-.1,2.24,2.24,0,0,0-.47-.29,4.29,4.29,0,0,0-.63-.23,2.38,2.38,0,0,0-.62-.09,2.26,2.26,0,0,0-.79.12,1.06,1.06,0,0,0-.49.33.76.76,0,0,0-.17.48.81.81,0,0,0,.2.55,1.33,1.33,0,0,0,.55.34,6.09,6.09,0,0,0,.87.22,8.91,8.91,0,0,1,1.16.29,2.81,2.81,0,0,1,.83.42,1.58,1.58,0,0,1,.49.65,2.41,2.41,0,0,1,.17,1,2,2,0,0,1-.4,1.23,2.51,2.51,0,0,1-1,.79A3.55,3.55,0,0,1,66.14,128.74Z" fill="#fff"/><path d="M71.6,128a.63.63,0,0,1-.21.48.68.68,0,0,1-.48.19.64.64,0,0,1-.49-.19.65.65,0,0,1-.19-.48v-6.34a.66.66,0,0,1,.2-.48.69.69,0,0,1,.5-.2.67.67,0,0,1,.47.2.66.66,0,0,1,.2.48Z" fill="#fff"/><path d="M73.43,122.21A.68.68,0,0,1,73,122a.58.58,0,0,1-.19-.46.55.55,0,0,1,.19-.45.68.68,0,0,1,.48-.18H78.3a.68.68,0,0,1,.48.18.65.65,0,0,1,0,.92.72.72,0,0,1-.48.17Zm2.42,6.42a.68.68,0,0,1-.5-.19.66.66,0,0,1-.2-.48v-6.37h1.43V128a.63.63,0,0,1-.21.48A.69.69,0,0,1,75.85,128.63Z" fill="#fff"/><path d="M81.5,128a.63.63,0,0,1-.21.48.68.68,0,0,1-.48.19.66.66,0,0,1-.5-.19.68.68,0,0,1-.18-.48v-6.34a.65.65,0,0,1,.19-.48.71.71,0,0,1,.51-.2.67.67,0,0,1,.47.2.66.66,0,0,1,.2.48Z" fill="#fff"/><path d="M88.76,120.92a.72.72,0,0,1,.48.18.61.61,0,0,1,.2.46.69.69,0,0,1-.07.3l-2.71,6.35a.68.68,0,0,1-.28.32.71.71,0,0,1-.37.1.65.65,0,0,1-.34-.11.68.68,0,0,1-.25-.3l-2.71-6.37a.78.78,0,0,1,0-.14s0-.09,0-.14a.59.59,0,0,1,.23-.49.79.79,0,0,1,.44-.17.63.63,0,0,1,.61.43l2.4,5.66H86l2.21-5.67A.62.62,0,0,1,88.76,120.92Z" fill="#fff"/><path d="M91.26,120.94h3.68a.69.69,0,0,1,.48.19.59.59,0,0,1,.19.46.57.57,0,0,1-.19.45.72.72,0,0,1-.48.17H91.87L92,122v2.14l-.09-.08h2.57a.68.68,0,0,1,.48.18.59.59,0,0,1,.19.46.57.57,0,0,1-.19.45.72.72,0,0,1-.48.17H91.91l.06-.09v2.22l-.09-.1h3.06a.65.65,0,0,1,.48.19.61.61,0,0,1,.19.45.58.58,0,0,1-.19.45.67.67,0,0,1-.48.17H91.26a.61.61,0,0,1-.47-.19.66.66,0,0,1-.2-.48v-6.34a.66.66,0,0,1,.2-.48A.62.62,0,0,1,91.26,120.94Z" fill="#fff"/><path d="M101.12,127.35a.64.64,0,0,1,.47.18.62.62,0,0,1,.2.47.59.59,0,0,1-.2.45.64.64,0,0,1-.47.18H97.55a.65.65,0,0,1-.67-.67v-6.34a.65.65,0,0,1,.19-.48.71.71,0,0,1,.51-.2.67.67,0,0,1,.47.2.66.66,0,0,1,.2.48v5.92l-.24-.19Z" fill="#fff"/><path d="M107.29,120.91a.7.7,0,0,1,.46.19.68.68,0,0,1,.2.49.76.76,0,0,1,0,.21.88.88,0,0,1-.09.2l-2.5,3.57.2-.76V128a.65.65,0,0,1-.19.48.61.61,0,0,1-.44.19.63.63,0,0,1-.47-.19.65.65,0,0,1-.19-.48V124.9l.08.35L102,122.1a1.1,1.1,0,0,1-.15-.28.69.69,0,0,1,0-.24.59.59,0,0,1,.23-.48.75.75,0,0,1,.48-.19.64.64,0,0,1,.53.31l2.11,2.91-.3,0,1.94-2.85A.66.66,0,0,1,107.29,120.91Z" fill="#fff"/></g></g></svg>